<svg version="1.1" id="Layer_1" xmlns="http://www.w3.org/2000/svg" xmlns:xlink="http://www.w3.org/1999/xlink" x="0px" y="0px"
	 width="100%" viewBox="0 0 500 500" enable-background="new 0 0 500 500" xml:space="preserve">
<path fill="#017ACC" opacity="1.000000" stroke="none" 
	d="
M328.000000,501.000000 
	C218.666687,501.000000 109.833382,501.000000 1.000058,501.000000 
	C1.000039,334.333405 1.000039,167.666794 1.000019,1.000148 
	C167.666565,1.000099 334.333130,1.000099 500.999756,1.000049 
	C500.999847,167.666519 500.999847,334.333038 500.999939,500.999786 
	C443.500000,501.000000 386.000000,501.000000 328.000000,501.000000 
M224.272644,260.219543 
	C241.117065,271.466217 259.337158,273.220001 278.264374,267.189850 
	C292.090820,262.784760 300.981598,253.305710 302.703430,238.500656 
	C304.440033,223.568558 300.454498,210.451294 287.269012,201.936905 
	C279.619781,196.997482 271.141815,193.340668 263.032898,189.114120 
	C258.465179,186.733337 253.642685,184.737518 249.384201,181.895233 
	C244.778809,178.821396 243.323792,173.201523 245.136765,168.093475 
	C246.920410,163.067978 250.892807,161.074982 255.973663,160.728455 
	C262.677338,160.271210 267.949341,162.645828 271.961304,168.121841 
	C272.869629,169.361633 275.315033,171.052170 275.943512,170.676971 
	C282.450562,166.792145 288.730103,162.526215 295.025543,158.397324 
	C285.485596,141.650711 271.144775,136.473724 253.663666,137.317551 
	C237.041656,138.119904 223.489288,147.397156 219.421402,162.443466 
	C215.139481,178.281403 219.121994,193.307816 233.060379,203.245438 
	C239.101639,207.552643 246.096054,210.543945 252.731888,213.989792 
	C258.488464,216.979019 264.482300,219.531738 270.123596,222.716156 
	C274.723328,225.312637 276.681396,229.629608 276.031158,234.993027 
	C275.391266,240.271042 272.059174,243.352798 267.395081,245.003174 
	C257.145538,248.629959 247.665634,247.127304 239.475266,239.806564 
	C236.532593,237.176285 234.084412,233.992752 231.176743,230.805405 
	C224.186127,234.839462 217.174179,238.885834 208.773926,243.733353 
	C214.122116,249.499176 218.904770,254.655304 224.272644,260.219543 
M299.617706,309.659668 
	C299.822937,309.424500 300.008514,309.166656 300.242249,308.964478 
	C300.347961,308.873047 300.549377,308.892242 300.707336,308.861267 
	C300.807770,310.329163 301.002441,311.797607 300.994080,313.264862 
	C300.908752,328.252869 300.854370,343.241577 300.631561,358.227753 
	C300.582489,361.527344 301.823242,362.653687 305.030853,362.552826 
	C310.355438,362.385406 315.693542,362.384460 321.017639,362.562256 
	C324.289032,362.671509 325.401642,361.385437 325.391418,358.169281 
	C325.309875,332.519165 325.315125,306.868561 325.378113,281.218323 
	C325.384613,278.567657 324.756744,277.210236 321.789917,277.259094 
	C314.130188,277.385284 306.460602,277.140625 298.810913,277.445312 
	C297.356415,277.503235 295.247620,279.113983 294.690979,280.507660 
	C292.669250,285.569550 291.225586,290.859406 289.477966,296.034271 
	C286.008087,306.309143 282.481110,316.564758 278.522400,328.162170 
	C272.811523,311.419861 267.684540,296.270935 262.425690,281.167938 
	C261.936646,279.763428 260.641418,277.592896 259.669830,277.565369 
	C250.105957,277.294189 240.531326,277.401581 230.585938,277.401581 
	C230.585938,305.262604 230.548264,332.384888 230.733917,359.505707 
	C230.740814,360.513062 232.854630,362.249084 234.107132,362.367188 
	C238.069443,362.740784 242.106079,362.277618 246.081619,362.573181 
	C249.900742,362.857147 250.927612,361.375275 250.881012,357.708313 
	C250.696884,343.219910 250.780945,328.728027 250.784851,314.237427 
	C250.785248,312.725616 250.913620,311.213898 251.001816,309.281281 
	C251.876968,309.955353 252.254761,310.092743 252.338379,310.332672 
	C257.951050,326.436493 263.741791,342.483154 269.000122,358.702393 
	C270.455322,363.190948 273.392609,362.401947 276.427185,362.493073 
	C279.296417,362.579224 281.693695,362.657074 282.938568,358.829010 
	C288.213440,342.608673 293.904846,326.523773 299.617706,309.659668 
M114.506012,138.757278 
	C110.090187,138.757278 105.674362,138.757278 101.248421,138.757278 
	C101.248421,147.142960 101.248421,154.535873 101.248421,162.470123 
	C113.729172,162.470123 125.807838,162.470123 138.373199,162.470123 
	C138.373199,198.108917 138.373199,233.196671 138.373199,268.481628 
	C147.428238,268.481628 155.969711,268.481628 164.984711,268.481628 
	C164.984711,233.026489 164.984711,197.941086 164.984711,162.146271 
	C177.639420,162.146271 189.836700,162.146271 201.888290,162.146271 
	C201.888290,154.027969 201.888290,146.631699 201.888290,138.748550 
	C172.766907,138.748550 144.133499,138.748550 114.506012,138.757278 
M213.556122,278.182983 
	C206.541779,277.775604 199.527435,277.368225 191.867722,276.923340 
	C191.867722,282.364014 191.992035,286.814728 191.844940,291.256439 
	C191.361023,305.869110 191.057037,320.496552 190.111755,335.081238 
	C189.667831,341.930573 184.452438,345.502747 177.165833,345.296234 
	C171.010696,345.121796 167.078690,341.247620 166.595596,334.437042 
	C166.077774,327.136932 165.669739,319.819153 165.544678,312.503418 
	C165.368240,302.183014 165.601425,291.855072 165.371368,281.536743 
	C165.339584,280.110931 163.712341,277.547638 162.732346,277.502716 
	C155.290192,277.161194 147.825272,277.315826 140.315628,277.315826 
	C140.055817,278.391724 139.772522,279.017151 139.773041,279.642273 
	C139.788330,298.456421 139.311371,317.291473 140.068893,336.076630 
	C140.511536,347.053864 146.539856,355.307129 156.814224,360.216064 
	C166.153625,364.678284 176.088181,364.236633 185.716034,363.155457 
	C201.786728,361.350800 212.999039,351.296265 213.616837,333.484833 
	C214.245590,315.357727 213.815536,297.193909 213.556122,278.182983 
M407.640625,247.286957 
	C408.213104,245.671951 408.785583,244.056961 409.357574,242.443253 
	C404.606171,241.064789 401.830322,242.324860 400.275665,246.579147 
	C397.959076,252.918335 393.024658,255.112137 386.530060,255.031799 
	C374.699066,254.885468 362.864899,255.003433 351.032135,254.978912 
	C349.820160,254.976410 348.608612,254.755035 346.890961,254.585205 
	C353.200439,247.727249 359.098846,241.395615 364.906342,234.981598 
	C370.830872,228.438354 376.789429,221.919220 382.509857,215.199493 
	C390.091217,206.293777 397.022400,196.943451 400.480011,185.515381 
	C405.325104,169.501434 400.493378,153.063171 388.180450,144.934937 
	C372.314728,134.461365 353.093048,138.418121 338.404999,150.681351 
	C337.820068,151.169724 337.278290,151.961792 337.139099,152.692841 
	C335.816162,159.641876 334.584717,166.608307 333.331696,173.543732 
	C337.463074,174.909576 339.996155,173.853104 341.658813,169.757660 
	C342.889069,166.727264 344.773102,163.813522 346.926453,161.334824 
	C353.114777,154.211624 360.906036,151.351028 370.230164,153.878708 
	C379.247681,156.323242 384.112671,162.942825 384.547272,171.654953 
	C384.911133,178.948761 384.528839,186.980637 381.781219,193.559891 
	C377.931335,202.778412 372.469635,211.684082 366.108093,219.415970 
	C354.059479,234.060043 340.810516,247.712326 328.254944,261.948395 
	C326.573700,263.854706 326.023895,266.758881 324.821014,269.494598 
	C350.390381,269.494598 374.497467,269.494598 398.843933,269.494598 
	C401.596161,262.489563 404.451996,255.220917 407.640625,247.286957 
M344.278137,296.500793 
	C344.279541,316.802368 344.360931,337.104492 344.212372,357.404968 
	C344.183868,361.296814 345.385162,362.652740 349.349365,362.596436 
	C362.825470,362.404938 376.307037,362.630371 389.784729,362.505127 
	C403.861725,362.374298 401.387970,364.610077 401.749237,350.233368 
	C401.838898,346.665436 400.309692,345.559998 396.985901,345.615814 
	C389.832489,345.735992 382.666351,345.431915 375.523682,345.733398 
	C371.383118,345.908112 370.072510,344.578308 370.113434,340.407013 
	C370.301147,321.272156 370.195740,302.134430 370.195557,282.997711 
	C370.195526,281.229858 370.195557,279.462006 370.195557,277.586334 
	C368.332336,277.454987 367.185516,277.308105 366.038239,277.304230 
	C359.881317,277.283508 353.723663,277.350311 347.567566,277.277008 
	C344.865814,277.244873 344.201660,278.603912 344.255554,281.024750 
	C344.362915,285.848053 344.281647,290.675568 344.278137,296.500793 
z"/>
<path fill="#FAFDFE" opacity="1.000000" stroke="none" 
	d="
M223.980026,260.015503 
	C218.904770,254.655304 214.122116,249.499176 208.773926,243.733353 
	C217.174179,238.885834 224.186127,234.839462 231.176743,230.805405 
	C234.084412,233.992752 236.532593,237.176285 239.475266,239.806564 
	C247.665634,247.127304 257.145538,248.629959 267.395081,245.003174 
	C272.059174,243.352798 275.391266,240.271042 276.031158,234.993027 
	C276.681396,229.629608 274.723328,225.312637 270.123596,222.716156 
	C264.482300,219.531738 258.488464,216.979019 252.731888,213.989792 
	C246.096054,210.543945 239.101639,207.552643 233.060379,203.245438 
	C219.121994,193.307816 215.139481,178.281403 219.421402,162.443466 
	C223.489288,147.397156 237.041656,138.119904 253.663666,137.317551 
	C271.144775,136.473724 285.485596,141.650711 295.025543,158.397324 
	C288.730103,162.526215 282.450562,166.792145 275.943512,170.676971 
	C275.315033,171.052170 272.869629,169.361633 271.961304,168.121841 
	C267.949341,162.645828 262.677338,160.271210 255.973663,160.728455 
	C250.892807,161.074982 246.920410,163.067978 245.136765,168.093475 
	C243.323792,173.201523 244.778809,178.821396 249.384201,181.895233 
	C253.642685,184.737518 258.465179,186.733337 263.032898,189.114120 
	C271.141815,193.340668 279.619781,196.997482 287.269012,201.936905 
	C300.454498,210.451294 304.440033,223.568558 302.703430,238.500656 
	C300.981598,253.305710 292.090820,262.784760 278.264374,267.189850 
	C259.337158,273.220001 241.117065,271.466217 223.980026,260.015503 
z"/>
<path fill="#F1F5F7" opacity="1.000000" stroke="none" 
	d="
M299.530884,310.024536 
	C293.904846,326.523773 288.213440,342.608673 282.938568,358.829010 
	C281.693695,362.657074 279.296417,362.579224 276.427185,362.493073 
	C273.392609,362.401947 270.455322,363.190948 269.000122,358.702393 
	C263.741791,342.483154 257.951050,326.436493 252.338379,310.332672 
	C252.254761,310.092743 251.876968,309.955353 251.001816,309.281281 
	C250.913620,311.213898 250.785248,312.725616 250.784851,314.237427 
	C250.780945,328.728027 250.696884,343.219910 250.881012,357.708313 
	C250.927612,361.375275 249.900742,362.857147 246.081619,362.573181 
	C242.106079,362.277618 238.069443,362.740784 234.107132,362.367188 
	C232.854630,362.249084 230.740814,360.513062 230.733917,359.505707 
	C230.548264,332.384888 230.585938,305.262604 230.585938,277.401581 
	C240.531326,277.401581 250.105957,277.294189 259.669830,277.565369 
	C260.641418,277.592896 261.936646,279.763428 262.425690,281.167938 
	C267.684540,296.270935 272.811523,311.419861 278.522400,328.162170 
	C282.481110,316.564758 286.008087,306.309143 289.477966,296.034271 
	C291.225586,290.859406 292.669250,285.569550 294.690979,280.507660 
	C295.247620,279.113983 297.356415,277.503235 298.810913,277.445312 
	C306.460602,277.140625 314.130188,277.385284 321.789917,277.259094 
	C324.756744,277.210236 325.384613,278.567657 325.378113,281.218323 
	C325.315125,306.868561 325.309875,332.519165 325.391418,358.169281 
	C325.401642,361.385437 324.289032,362.671509 321.017639,362.562256 
	C315.693542,362.384460 310.355438,362.385406 305.030853,362.552826 
	C301.823242,362.653687 300.582489,361.527344 300.631561,358.227753 
	C300.854370,343.241577 300.908752,328.252869 300.994080,313.264862 
	C301.002441,311.797607 300.807770,310.329163 300.707336,308.861267 
	C300.549377,308.892242 300.347961,308.873047 300.242249,308.964478 
	C300.008514,309.166656 299.822937,309.424500 299.530884,310.024536 
z"/>
<path fill="#FBFDFE" opacity="1.000000" stroke="none" 
	d="
M115.003059,138.752914 
	C144.133499,138.748550 172.766907,138.748550 201.888290,138.748550 
	C201.888290,146.631699 201.888290,154.027969 201.888290,162.146271 
	C189.836700,162.146271 177.639420,162.146271 164.984711,162.146271 
	C164.984711,197.941086 164.984711,233.026489 164.984711,268.481628 
	C155.969711,268.481628 147.428238,268.481628 138.373199,268.481628 
	C138.373199,233.196671 138.373199,198.108917 138.373199,162.470123 
	C125.807838,162.470123 113.729172,162.470123 101.248421,162.470123 
	C101.248421,154.535873 101.248421,147.142960 101.248421,138.757278 
	C105.674362,138.757278 110.090187,138.757278 115.003059,138.752914 
z"/>
<path fill="#F1F5F7" opacity="1.000000" stroke="none" 
	d="
M213.702606,278.614563 
	C213.815536,297.193909 214.245590,315.357727 213.616837,333.484833 
	C212.999039,351.296265 201.786728,361.350800 185.716034,363.155457 
	C176.088181,364.236633 166.153625,364.678284 156.814224,360.216064 
	C146.539856,355.307129 140.511536,347.053864 140.068893,336.076630 
	C139.311371,317.291473 139.788330,298.456421 139.773041,279.642273 
	C139.772522,279.017151 140.055817,278.391724 140.315628,277.315826 
	C147.825272,277.315826 155.290192,277.161194 162.732346,277.502716 
	C163.712341,277.547638 165.339584,280.110931 165.371368,281.536743 
	C165.601425,291.855072 165.368240,302.183014 165.544678,312.503418 
	C165.669739,319.819153 166.077774,327.136932 166.595596,334.437042 
	C167.078690,341.247620 171.010696,345.121796 177.165833,345.296234 
	C184.452438,345.502747 189.667831,341.930573 190.111755,335.081238 
	C191.057037,320.496552 191.361023,305.869110 191.844940,291.256439 
	C191.992035,286.814728 191.867722,282.364014 191.867722,276.923340 
	C199.527435,277.368225 206.541779,277.775604 213.702606,278.614563 
M141.018829,317.470886 
	C141.020432,319.630188 140.976898,321.790619 141.032776,323.948517 
	C141.158569,328.805817 143.623734,330.571625 147.614273,328.006287 
	C155.704056,322.805664 160.708115,315.621216 154.514267,305.924408 
	C151.732849,301.569916 150.044250,297.594788 149.681137,292.398010 
	C149.386703,288.184052 147.399460,283.776337 141.018951,282.372864 
	C141.018951,294.094757 141.018951,305.287964 141.018829,317.470886 
z"/>
<path fill="#ECE2B1" opacity="1.000000" stroke="none" 
	d="
M407.474213,247.619614 
	C404.451996,255.220917 401.596161,262.489563 398.843933,269.494598 
	C374.497467,269.494598 350.390381,269.494598 324.821014,269.494598 
	C326.023895,266.758881 326.573700,263.854706 328.254944,261.948395 
	C340.810516,247.712326 354.059479,234.060043 366.108093,219.415970 
	C372.469635,211.684082 377.931335,202.778412 381.781219,193.559891 
	C384.528839,186.980637 384.911133,178.948761 384.547272,171.654953 
	C384.112671,162.942825 379.247681,156.323242 370.230164,153.878708 
	C360.906036,151.351028 353.114777,154.211624 346.926453,161.334824 
	C344.773102,163.813522 342.889069,166.727264 341.658813,169.757660 
	C339.996155,173.853104 337.463074,174.909576 333.331696,173.543732 
	C334.584717,166.608307 335.816162,159.641876 337.139099,152.692841 
	C337.278290,151.961792 337.820068,151.169724 338.404999,150.681351 
	C353.093048,138.418121 372.314728,134.461365 388.180450,144.934937 
	C400.493378,153.063171 405.325104,169.501434 400.480011,185.515381 
	C397.022400,196.943451 390.091217,206.293777 382.509857,215.199493 
	C376.789429,221.919220 370.830872,228.438354 364.906342,234.981598 
	C359.098846,241.395615 353.200439,247.727249 346.890961,254.585205 
	C348.608612,254.755035 349.820160,254.976410 351.032135,254.978912 
	C362.864899,255.003433 374.699066,254.885468 386.530060,255.031799 
	C393.024658,255.112137 397.959076,252.918335 400.275665,246.579147 
	C401.830322,242.324860 404.606171,241.064789 409.357574,242.443253 
	C408.785583,244.056961 408.213104,245.671951 407.474213,247.619614 
z"/>
<path fill="#F0F4F7" opacity="1.000000" stroke="none" 
	d="
M344.278198,296.001068 
	C344.281647,290.675568 344.362915,285.848053 344.255554,281.024750 
	C344.201660,278.603912 344.865814,277.244873 347.567566,277.277008 
	C353.723663,277.350311 359.881317,277.283508 366.038239,277.304230 
	C367.185516,277.308105 368.332336,277.454987 370.195557,277.586334 
	C370.195557,279.462006 370.195526,281.229858 370.195557,282.997711 
	C370.195740,302.134430 370.301147,321.272156 370.113434,340.407013 
	C370.072510,344.578308 371.383118,345.908112 375.523682,345.733398 
	C382.666351,345.431915 389.832489,345.735992 396.985901,345.615814 
	C400.309692,345.559998 401.838898,346.665436 401.749237,350.233368 
	C401.387970,364.610077 403.861725,362.374298 389.784729,362.505127 
	C376.307037,362.630371 362.825470,362.404938 349.349365,362.596436 
	C345.385162,362.652740 344.183868,361.296814 344.212372,357.404968 
	C344.360931,337.104492 344.279541,316.802368 344.278198,296.001068 
z"/>
<path fill="#FDFEFE" opacity="1.000000" stroke="none" 
	d="
M141.018890,316.976044 
	C141.018951,305.287964 141.018951,294.094757 141.018951,282.372864 
	C147.399460,283.776337 149.386703,288.184052 149.681137,292.398010 
	C150.044250,297.594788 151.732849,301.569916 154.514267,305.924408 
	C160.708115,315.621216 155.704056,322.805664 147.614273,328.006287 
	C143.623734,330.571625 141.158569,328.805817 141.032776,323.948517 
	C140.976898,321.790619 141.020432,319.630188 141.018890,316.976044 
z"/>
</svg>