<svg xmlns="http://www.w3.org/2000/svg" xmlns:xlink="http://www.w3.org/1999/xlink" version="1.1" width="344" enable-background="new 0 0 500 500" xml:space="preserve" height="263" style=""><rect id="backgroundrect" width="100%" height="100%" x="0" y="0" fill="none" stroke="none"/>








<g class="currentLayer" style=""><title>Layer 1</title><rect fill="#017ACC" stroke-dashoffset="" fill-rule="nonzero" id="svg_13" x="8.195638656616211e-8" y="-3.3527612686157227e-8" width="343.9717425107956" height="263.4858708381653" style="color: rgb(0, 0, 0);" class=""/><path fill="#FAFDFE" opacity="1.000000" stroke="none" d="M142.5506475724349,142.54092697007349 C137.47539157243492,137.18072797007346 132.6927375724349,132.02459997007347 127.34454757243489,126.25877697007346 C135.7448005724349,121.41125797007345 142.7567485724349,117.36488597007346 149.7473645724349,113.33082897007347 C152.6550335724349,116.51817597007346 155.1032145724349,119.70170897007347 158.0458875724349,122.33198797007347 C166.2362555724349,129.65272797007347 175.7161595724349,131.15538297007348 185.9657025724349,127.52859797007346 C190.6297955724349,125.87822197007347 193.96188757243488,122.79646597007346 194.6017795724349,117.51845097007347 C195.2520175724349,112.15503197007345 193.29394957243488,107.83806097007346 188.69421757243492,105.24157997007347 C183.0529215724349,102.05716197007345 177.05908557243492,99.50444297007346 171.3025095724349,96.51521597007346 C164.6666755724349,93.06936897007347 157.6722605724349,90.07806697007345 151.6310005724349,85.77086197007347 C137.6926155724349,75.83323997007346 133.7101025724349,60.80682697007347 137.9920235724349,44.96888997007346 C142.0599095724349,29.922579970073457 155.6122775724349,20.645327970073453 172.2342875724349,19.84297497007347 C189.71539657243488,18.999147970073466 204.0562175724349,24.176134970073463 213.59616457243493,40.92274797007346 C207.3007245724349,45.05163897007347 201.0211835724349,49.31756897007347 194.5141335724349,53.20239497007347 C193.88565457243493,53.57759397007345 191.44025057243488,51.88705697007347 190.5319255724349,50.64726497007345 C186.5199625724349,45.171251970073456 181.24795957243492,42.79663397007346 174.5442845724349,43.25387897007346 C169.4634285724349,43.60040597007347 165.4910315724349,45.59340197007347 163.7073865724349,50.618898970073474 C161.8944135724349,55.72694697007347 163.3494305724349,61.346819970073454 167.9548225724349,64.42065697007345 C172.2133065724349,67.26294197007346 177.03580057243488,69.25876097007347 181.6035195724349,71.63954397007348 C189.7124365724349,75.86609197007346 198.1904025724349,79.52290597007345 205.83963357243488,84.46232897007346 C219.0251195724349,92.97671797007345 223.01065457243493,106.09398197007346 221.27405157243493,121.02607997007345 C219.55221957243492,135.83113397007347 210.6614415724349,145.31018397007347 196.83499557243488,149.71527397007344 C177.9077795724349,155.7454249700735 159.6876865724349,153.99164097007343 142.5506475724349,142.54092697007349 z" id="svg_2" class=""/><path fill="#F1F5F7" opacity="1.000000" stroke="none" d="M218.10150557243492,192.54995997007347 C212.47546757243492,209.04919697007347 206.7840615724349,225.13409697007347 201.50918957243488,241.35443397007344 C200.2643165724349,245.18249797007348 197.86703857243492,245.10464797007347 194.9978065724349,245.01849697007344 C191.9632305724349,244.92737097007347 189.02594357243493,245.71637197007345 187.57074357243488,241.22781697007343 C182.31241257243488,225.00857797007347 176.5216715724349,208.96191697007345 170.9090005724349,192.85809597007346 C170.8253825724349,192.61816697007345 170.4475895724349,192.48077697007346 169.5724375724349,191.80670497007344 C169.4842415724349,193.73932197007343 169.3558695724349,195.25103997007346 169.3554725724349,196.7628509700735 C169.3515665724349,211.25345097007346 169.2675055724349,225.7453339700735 169.4516335724349,240.23373697007344 C169.4982335724349,243.90069897007345 168.4713635724349,245.38257097007346 164.6522405724349,245.09860497007344 C160.6767005724349,244.80304197007348 156.6400645724349,245.26620797007348 152.6777535724349,244.89261197007346 C151.4252515724349,244.77450797007344 149.3114355724349,243.03848597007345 149.3045385724349,242.03113097007343 C149.1188855724349,214.91031197007345 149.1565595724349,187.78802797007347 149.1565595724349,159.92700497007348 C159.1019475724349,159.92700497007348 168.6765785724349,159.81961297007348 178.2404515724349,160.09079297007344 C179.2120395724349,160.11831997007346 180.5072675724349,162.28885197007344 180.99631157243488,163.69336197007345 C186.25516157243493,178.79635897007347 191.38214457243492,193.9452849700735 197.0930215724349,210.68759397007346 C201.0517315724349,199.09018197007344 204.5787085724349,188.83456697007347 208.04858757243488,178.55969497007345 C209.79620757243492,173.38482997007344 211.23987157243488,168.09497397007345 213.26160057243493,163.03308397007345 C213.81824157243489,161.63940697007348 215.92703657243493,160.02865897007348 217.38153457243493,159.97073597007346 C225.0312235724349,159.66604897007346 232.70080957243488,159.91070797007347 240.3605385724349,159.78451797007347 C243.32736557243493,159.73565997007347 243.9552345724349,161.09308097007346 243.9487345724349,163.74374697007346 C243.88574657243493,189.39398497007346 243.88049657243488,215.04458897007345 243.9620395724349,240.69470497007347 C243.97226357243488,243.9108609700735 242.85965357243492,245.19693297007348 239.58826057243488,245.08767997007345 C234.26416357243488,244.90988397007345 228.9260595724349,244.91082997007345 223.60147457243488,245.07824997007344 C220.3938635724349,245.17911097007345 219.1531105724349,244.0527679700735 219.20218257243488,240.75317697007347 C219.42499157243492,225.76700097007347 219.4793735724349,210.77829297007344 219.5647015724349,195.79028597007346 C219.57306257243488,194.3230309700735 219.3783915724349,192.85458697007346 219.2779575724349,191.38669097007346 C219.1199985724349,191.41766597007347 218.9185825724349,191.39847097007345 218.81287057243492,191.48990197007345 C218.5791355724349,191.69207997007345 218.39355857243493,191.94992397007348 218.10150557243492,192.54995997007347 z" id="svg_3" class=""/><path fill="#FBFDFE" opacity="1.000000" stroke="none" d="M33.573680572434895,21.278337970073466 C62.7041205724349,21.273973970073456 91.3375285724349,21.273973970073456 120.45891157243491,21.273973970073456 C120.45891157243491,29.15712297007346 120.45891157243491,36.553392970073475 120.45891157243491,44.671694970073474 C108.40732157243491,44.671694970073474 96.2100415724349,44.671694970073474 83.5553325724349,44.671694970073474 C83.5553325724349,80.46650997007347 83.5553325724349,115.55191297007346 83.5553325724349,151.00705197007346 C74.54033257243489,151.00705197007346 65.9988595724349,151.00705197007346 56.9438205724349,151.00705197007346 C56.9438205724349,115.72209497007347 56.9438205724349,80.63434097007345 56.9438205724349,44.99554697007346 C44.378459572434906,44.99554697007346 32.29979357243491,44.99554697007346 19.819042572434896,44.99554697007346 C19.819042572434896,37.06129697007347 19.819042572434896,29.66838397007345 19.819042572434896,21.282701970073475 C24.244983572434904,21.282701970073475 28.660808572434902,21.282701970073475 33.573680572434895,21.278337970073466 z" id="svg_4" class=""/><path fill="#F1F5F7" opacity="1.000000" stroke="none" d="M132.2732275724349,161.13998697007344 C132.3861575724349,179.71933297007348 132.8162115724349,197.88315097007347 132.1874585724349,216.01025697007344 C131.5696605724349,233.82168897007347 120.35734957243491,243.87622397007345 104.28665557243491,245.68088097007347 C94.6588025724349,246.76205697007344 84.72424657243491,247.20370797007348 75.3848455724349,242.74148797007348 C65.11047757243489,237.83255297007344 59.08215757243491,229.57928797007344 58.639514572434905,218.60205397007348 C57.88199257243491,199.81689697007346 58.358951572434904,180.98184497007344 58.34366257243491,162.16769697007345 C58.34314357243491,161.54257497007347 58.62643857243489,160.91714797007347 58.886249572434906,159.84124997007348 C66.39589357243491,159.84124997007348 73.86081357243489,159.68661797007348 81.30296757243491,160.02813997007348 C82.28296257243491,160.07306197007347 83.9102055724349,162.63635497007346 83.94198957243489,164.06216697007346 C84.17204657243491,174.38049597007347 83.93886157243489,184.70843797007348 84.1152995724349,195.02884197007347 C84.2403605724349,202.3445769700735 84.64839557243491,209.66235597007346 85.1662175724349,216.96246597007348 C85.6493115724349,223.77304397007345 89.5813175724349,227.64721997007348 95.7364545724349,227.8216579700735 C103.0230595724349,228.02817097007346 108.23845257243491,224.45599697007344 108.68237657243489,217.60666197007345 C109.62765857243491,203.02197597007347 109.93164457243489,188.39453397007344 110.41556157243491,173.78186297007346 C110.56265657243489,169.34015197007346 110.43834357243489,164.88943797007346 110.43834357243489,159.44876397007346 C118.0980565724349,159.89364897007346 125.1124005724349,160.30102797007345 132.2732275724349,161.13998697007344 M59.58945057243491,199.99630997007347 C59.5910535724349,202.15561197007344 59.54751957243491,204.31604297007345 59.603397572434915,206.47394097007344 C59.7291905724349,211.33124097007345 62.194355572434915,213.09704897007344 66.1848945724349,210.53171097007345 C74.27467757243491,205.33108797007344 79.2787365724349,198.14663997007347 73.08488857243489,188.4498319700735 C70.30347057243489,184.09533997007344 68.61487157243491,180.12021197007346 68.25175857243491,174.92343397007346 C67.95732457243491,170.70947597007347 65.9700815724349,166.30176097007347 59.58957257243489,164.89828797007345 C59.58957257243489,176.62018097007348 59.58957257243489,187.81338797007345 59.58945057243491,199.99630997007347 z" id="svg_5" class=""/><path fill="#ECE2B1" opacity="1.000000" stroke="none" d="M326.0448345724349,130.14503797007347 C323.0226175724349,137.74634097007348 320.1667825724349,145.01498697007344 317.4145545724349,152.02002197007346 C293.0680885724349,152.02002197007346 268.9610025724349,152.02002197007346 243.3916355724349,152.02002197007346 C244.59451657243488,149.28430497007344 245.14432157243488,146.38012997007348 246.82556557243493,144.47381897007347 C259.3811375724349,130.23774997007345 272.6301005724349,116.58546697007347 284.6787145724349,101.94139397007345 C291.0402565724349,94.20950597007345 296.5019565724349,85.30383597007346 300.3518405724349,76.08531497007345 C303.0994605724349,69.50606097007346 303.4817545724349,61.47418497007345 303.1178935724349,54.18037697007347 C302.6832925724349,45.46824897007346 297.8183025724349,38.848665970073455 288.8007855724349,36.40413197007345 C279.4766575724349,33.876451970073475 271.6853985724349,36.73704797007346 265.4970745724349,43.86024797007346 C263.3437235724349,46.33894597007347 261.4596905724349,49.25268797007345 260.2294345724349,52.28308397007345 C258.5667765724349,56.37852797007346 256.0336955724349,57.43499997007345 251.90231757243492,56.06915597007347 C253.1553385724349,49.13373097007346 254.38678357243492,42.16729997007346 255.7097205724349,35.21826497007345 C255.84891157243493,34.487215970073464 256.3906895724349,33.695147970073464 256.9756205724349,33.20677497007347 C271.6636695724349,20.943544970073475 290.8853495724349,16.986788970073462 306.7510715724349,27.460360970073452 C319.0639995724349,35.58859497007347 323.8957255724349,52.02685797007345 319.0506325724349,68.04080497007345 C315.5930215724349,79.46887497007347 308.6618385724349,88.81920097007347 301.0804785724349,97.72491697007345 C295.3600505724349,104.44464397007346 289.4014935724349,110.96377797007347 283.4769635724349,117.50702197007345 C277.6694675724349,123.92103897007345 271.7710605724349,130.25267297007346 265.4615825724349,137.11062897007346 C267.1792335724349,137.28045897007345 268.3907815724349,137.50183397007345 269.6027565724349,137.50433597007347 C281.4355205724349,137.52885697007346 293.2696875724349,137.41089197007346 305.1006815724349,137.55722297007347 C311.5952795724349,137.63756097007345 316.5296975724349,135.44375897007347 318.8462865724349,129.10457097007347 C320.4009435724349,124.85028397007346 323.1767925724349,123.59021297007345 327.9281955724349,124.96867697007346 C327.3562045724349,126.58238497007346 326.7837255724349,128.19737497007347 326.0448345724349,130.14503797007347 z" id="svg_6" class=""/><path fill="#F0F4F7" opacity="1.000000" stroke="none" d="M262.8488195724349,178.52649197007344 C262.8522685724349,173.20099197007346 262.9335365724349,168.37347697007345 262.8261755724349,163.55017397007344 C262.7722815724349,161.12933597007344 263.4364355724349,159.77029697007345 266.1381875724349,159.80243197007348 C272.2942845724349,159.87573497007344 278.4519385724349,159.80893197007344 284.6088605724349,159.82965397007348 C285.7561375724349,159.83352897007347 286.9029575724349,159.98041097007348 288.7661785724349,160.11175797007348 C288.7661785724349,161.98742997007344 288.7661475724349,163.75528197007344 288.7661785724349,165.52313497007344 C288.7663615724349,184.65985397007347 288.8717685724349,203.79757997007346 288.6840555724349,222.93243697007347 C288.6431315724349,227.10373197007345 289.9537395724349,228.43353597007348 294.0943035724349,228.25882197007348 C301.2369725724349,227.95733897007347 308.4031105724349,228.26141597007347 315.5565225724349,228.14123797007346 C318.8803135724349,228.08542197007347 320.4095195724349,229.19085997007346 320.3198585724349,232.75879197007345 C319.9585915724349,247.13550097007345 322.4323465724349,244.89972197007347 308.35535057243493,245.03055097007348 C294.8776585724349,245.1557949700735 281.3960915724349,244.93036197007348 267.9199865724349,245.12185997007344 C263.9557835724349,245.17816397007346 262.7544895724349,243.82223797007345 262.7829935724349,239.93039197007346 C262.9315525724349,219.62991597007345 262.8501625724349,199.32779197007346 262.8488195724349,178.52649197007344 z" id="svg_7" class=""/><path fill="#FDFEFE" opacity="1.000000" stroke="none" d="M59.5895115724349,199.50146797007346 C59.58957257243489,187.81338797007345 59.58957257243489,176.62018097007348 59.58957257243489,164.89828797007345 C65.9700815724349,166.30176097007347 67.95732457243491,170.70947597007347 68.25175857243491,174.92343397007346 C68.61487157243491,180.12021197007346 70.30347057243489,184.09533997007344 73.08488857243489,188.4498319700735 C79.2787365724349,198.14663997007347 74.27467757243491,205.33108797007344 66.1848945724349,210.53171097007345 C62.194355572434915,213.09704897007344 59.7291905724349,211.33124097007345 59.603397572434915,206.47394097007344 C59.54751957243491,204.31604297007345 59.5910535724349,202.15561197007344 59.5895115724349,199.50146797007346 z" id="svg_8" class=""/></g></svg>